name Run_400 02_newCOP3_v24.mot
datacolumns 19
datarows 167
range 4.155 4.321
DataType=double
version=3
OpenSimVersion=4.3-2021-08-27-4bc7ad9
endheader
time	R_ground_force_vx	R_ground_force_vy	R_ground_force_vz	R_ground_force_px	R_ground_force_py	R_ground_force_pz	L_ground_force_vx	L_ground_force_vy	L_ground_force_vz	L_ground_force_px	L_ground_force_py	L_ground_force_pz	R_ground_torque_x	R_ground_torque_y	R_ground_torque_z	L_ground_torque_x	L_ground_torque_y	L_ground_torque_z
4.155	0	0	0	0	0	0	75.05162	205.957657	-19.902716	0.439993	0	-0.317143	0	0	0	0	-0.173588	0
4.156	0	0	0	0	0	0	71.88324	194.489395	-18.770777	0.434879	0	-0.317503	0	0	0	0	-0.324538	0
4.157	0	0	0	0	0	0	68.924347	183.46022	-17.559864	0.42943	0	-0.317854	0	0	0	0	-0.47415	0
4.158	0	0	0	0	0	0	66.156746	172.869385	-16.274738	0.423592	0	-0.318189	0	0	0	0	-0.6214190000000001	0
4.159	0	0	0	0	0	0	63.560642	162.715042	-14.923273	0.417303	0	-0.318503	0	0	0	0	-0.765272	0
4.16	0	0	0	0	0	0	61.115238	152.99411	-13.516283	0.41049	0	-0.318789	0	0	0	0	-0.9045609999999999	0
4.161	0	0	0	0	0	0	58.799347	143.702194	-12.067245	0.403067	0	-0.319039	0	0	0	0	-1.038076	0
4.162	0	0	0	0	0	0	56.59198	134.833633	-10.591936	0.394929	0	-0.319244	0	0	0	0	-1.164555	0
4.163	0	0	0	0	0	0	54.472839	126.381439	-9.108002000000001	0.385956	0	-0.319391	0	0	0	0	-1.282687	0
4.164	0	0	0	0	0	0	52.422775	118.337303	-7.634439	0.375999	0	-0.319466	0	0	0	0	-1.391134	0
4.165	0	0	0	0	0	0	50.42416	110.691765	-6.19105	0.364879	0	-0.319452	0	0	0	0	-1.488541	0
4.166	0	0	0	0	0	0	48.461174	103.43425	-4.797855	0.352377	0	-0.319326	0	0	0	0	-1.573551	0
4.167	0	0	0	0	0	0	46.520027	96.553291	-3.474499	0.338222	0	-0.319061	0	0	0	0	-1.64483	0
4.168	0	0	0	0	0	0	44.589073	90.036674	-2.23966	0.322077	0	-0.318622	0	0	0	0	-1.701083	0
4.169	0	0	0	0	0	0	42.658894	83.871674	-1.110491	0.303515	0	-0.317964	0	0	0	0	-1.741077	0
4.17	0	0	0	0	0	0	40.722275	78.04527299999999	-0.102111	0.281988	0	-0.317027	0	0	0	0	-1.763665	0
4.171	0	0	0	0	0	0	38.77417	72.544365	0.7728429999999999	0.256784	0	-0.315732	0	0	0	0	-1.767809	0
4.172	0	0	0	0	0	0	36.811604	67.355965	1.504584	0.22696	0	-0.313972	0	0	0	0	-1.752606	0
4.173	0	0	0	0	0	0	34.833534	62.467377	2.086452	0.19124	0	-0.311598	0	0	0	0	-1.717311	0
4.174	0	0	0	0	0	0	32.840748	57.866333	2.515091	0.147859	0	-0.308398	0	0	0	0	-1.661362	0
4.175	0	0	0	0	0	0	30.835678	53.541096	2.790529	0.094305	0	-0.304062	0	0	0	0	-1.584402	0
4.176	0	0	0	0	0	0	28.822271	49.480526	2.916146	0.026877	0	-0.298125	0	0	0	0	-1.486303	0
4.177	0	0	0	0	0	0	26.805836	45.674099	2.898551	-0.060095	-0	-0.289853	0	0	0	0	-1.367181	0
4.178	0	0	0	0	0	0	24.792883	42.111889	2.747367	-0.175757	-0	-0.278039	0	0	0	0	-1.227416	0
4.179	0	0	0	0	0	0	22.790981	38.784523	2.474934	-0.335841	-0	-0.260562	0	0	0	0	-1.067664	0
4.18	0	0	0	0	0	0	20.808594	35.683125	2.095936	-0.569839	-0	-0.233376	0	0	0	0	-0.888865	0
4.181	0	0	0	0	0	0	18.854904	32.799213	1.626985	-0.940111	-0	-0.187796	0	0	0	0	-0.692249	0
4.182	0	0	0	0	0	0	16.93964	30.124638	1.086157	-1.604914	-0	-0.101527	0	0	0	0	-0.479334	0
4.183	0	0	0	0	0	0	15.072863	27.651476	0.4925	0	0	0	0	0	0	0	0	0
4.184	0	0	0	0	0	0	13.264746	25.371956	-0.134461	0	0	0	0	0	0	0	0	0
4.185	0	0	0	0	0	0	11.525333	23.278374	-0.775226	0	0	0	0	0	0	0	0	0
4.186	0	0	0	0	0	0	9.864280000000001	21.363029	-1.410799	0	0	0	0	0	0	0	0	0
4.187	0	0	0	0	0	0	8.290587	19.618172	-2.02315	0	0	0	0	0	0	0	0	0
4.188	0	0	0	0	0	0	6.812333	18.03595	-2.595634	0	0	0	0	0	0	0	0	0
4.189	0	0	0	0	0	0	5.43642	16.608364	-3.113367	0	0	0	0	0	0	0	0	0
4.19	0	0	0	0	0	0	4.168345	15.327236	-3.563557	0	0	0	0	0	0	0	0	0
4.191	0	0	0	0	0	0	3.012001	14.18418	-3.935766	0	0	0	0	0	0	0	0	0
4.192	0	0	0	0	0	0	1.969532	13.170571	-4.222117	0	0	0	0	0	0	0	0	0
4.193	0	0	0	0	0	0	1.041241	12.277537	-4.417432	0	0	0	0	0	0	0	0	0
4.194	0	0	0	0	0	0	0.225564	11.49595	-4.519291	0	0	0	0	0	0	0	0	0
4.195	0	0	0	0	0	0	-0.480891	10.816432	-4.528031	0	0	0	0	0	0	0	0	0
4.196	0	0	0	0	0	0	-1.083238	10.229389	-4.446656	0	0	0	0	0	0	0	0	0
4.197	0	0	0	0	0	0	0	0	0	0	0	0	0	0	0	0	0	0
4.198	0	0	0	0	0	0	0	0	0	0	0	0	0	0	0	0	0	0
4.199	0	0	0	0	0	0	0	0	0	0	0	0	0	0	0	0	0	0
4.2	0	0	0	0	0	0	0	0	0	0	0	0	0	0	0	0	0	0
4.201	0	0	0	0	0	0	0	0	0	0	0	0	0	0	0	0	0	0
4.202	0	0	0	0	0	0	0	0	0	0	0	0	0	0	0	0	0	0
4.203	0	0	0	0	0	0	0	0	0	0	0	0	0	0	0	0	0	0
4.204	0	0	0	0	0	0	0	0	0	0	0	0	0	0	0	0	0	0
4.205	0	0	0	0	0	0	0	0	0	0	0	0	0	0	0	0	0	0
4.206	0	0	0	0	0	0	0	0	0	0	0	0	0	0	0	0	0	0
4.207	0	0	0	0	0	0	0	0	0	0	0	0	0	0	0	0	0	0
4.208	0	0	0	0	0	0	0	0	0	0	0	0	0	0	0	0	0	0
4.209	0	0	0	0	0	0	0	0	0	0	0	0	0	0	0	0	0	0
4.21	0	0	0	0	0	0	0	0	0	0	0	0	0	0	0	0	0	0
4.211	0	0	0	0	0	0	0	0	0	0	0	0	0	0	0	0	0	0
4.212	0	0	0	0	0	0	0	0	0	0	0	0	0	0	0	0	0	0
4.213	0	0	0	0	0	0	0	0	0	0	0	0	0	0	0	0	0	0
4.214	0	0	0	0	0	0	0	0	0	0	0	0	0	0	0	0	0	0
4.215	0	0	0	0	0	0	0	0	0	0	0	0	0	0	0	0	0	0
4.216	0	0	0	0	0	0	0	0	0	0	0	0	0	0	0	0	0	0
4.217	0	0	0	0	0	0	0	0	0	0	0	0	0	0	0	0	0	0
4.218	0	0	0	0	0	0	0	0	0	0	0	0	0	0	0	0	0	0
4.219	0	0	0	0	0	0	0	0	0	0	0	0	0	0	0	0	0	0
4.22	0	0	0	0	0	0	0	0	0	0	0	0	0	0	0	0	0	0
4.221	0	0	0	0	0	0	0	0	0	0	0	0	0	0	0	0	0	0
4.222	0	0	0	0	0	0	0	0	0	0	0	0	0	0	0	0	0	0
4.223	0	0	0	0	0	0	0	0	0	0	0	0	0	0	0	0	0	0
4.224	0	0	0	0	0	0	0	0	0	0	0	0	0	0	0	0	0	0
4.225	0	0	0	0	0	0	0	0	0	0	0	0	0	0	0	0	0	0
4.226	0	0	0	0	0	0	0	0	0	0	0	0	0	0	0	0	0	0
4.227	0	0	0	0	0	0	0	0	0	0	0	0	0	0	0	0	0	0
4.228	0	0	0	0	0	0	0	0	0	0	0	0	0	0	0	0	0	0
4.229	0	0	0	0	0	0	0	0	0	0	0	0	0	0	0	0	0	0
4.23	0	0	0	0	0	0	0	0	0	0	0	0	0	0	0	0	0	0
4.231	0	0	0	0	0	0	0	0	0	0	0	0	0	0	0	0	0	0
4.232	0	0	0	0	0	0	0	0	0	0	0	0	0	0	0	0	0	0
4.233	0	0	0	0	0	0	0	0	0	0	0	0	0	0	0	0	0	0
4.234	0	0	0	0	0	0	0	0	0	0	0	0	0	0	0	0	0	0
4.235	0	0	0	0	0	0	0	0	0	0	0	0	0	0	0	0	0	0
4.236	0	0	0	0	0	0	0	0	0	0	0	0	0	0	0	0	0	0
4.237	0	0	0	0	0	0	0	0	0	0	0	0	0	0	0	0	0	0
4.238	0	0	0	0	0	0	0	0	0	0	0	0	0	0	0	0	0	0
4.239	0	0	0	0	0	0	0	0	0	0	0	0	0	0	0	0	0	0
4.24	0	0	0	0	0	0	0	0	0	0	0	0	0	0	0	0	0	0
4.241	0	0	0	0	0	0	0	0	0	0	0	0	0	0	0	0	0	0
4.242	0	0	0	0	0	0	0	0	0	0	0	0	0	0	0	0	0	0
4.243	0	0	0	0	0	0	0	0	0	0	0	0	0	0	0	0	0	0
4.244	0	0	0	0	0	0	0	0	0	0	0	0	0	0	0	0	0	0
4.245	0	0	0	0	0	0	0	0	0	0	0	0	0	0	0	0	0	0
4.246	0	0	0	0	0	0	0	0	0	0	0	0	0	0	0	0	0	0
4.247	0	0	0	0	0	0	0	0	0	0	0	0	0	0	0	0	0	0
4.248	0	0	0	0	0	0	0	0	0	0	0	0	0	0	0	0	0	0
4.249	0	0	0	0	0	0	0	0	0	0	0	0	0	0	0	0	0	0
4.25	0	0	0	0	0	0	0	0	0	0	0	0	0	0	0	0	0	0
4.251	0	0	0	0	0	0	0	0	0	0	0	0	0	0	0	0	0	0
4.252	-0.327266	10.023155	0.644893	0	0	0	0	0	0	0	0	0	0	0	0	0	0	0
4.253	-0.371326	11.035114	0.366161	0	0	0	0	0	0	0	0	0	0	0	0	0	0	0
4.254	-0.447404	12.230144	0.021998	0	0	0	0	0	0	0	0	0	0	0	0	0	0	0
4.255	-0.552484	13.639447	-0.3842	0	0	0	0	0	0	0	0	0	0	0	0	0	0	0
4.256	-0.682817	15.298356	-0.848508	0	0	0	0	0	0	0	0	0	0	0	0	0	0	0
4.257	-0.833942	17.246721	-1.366703	0	0	0	0	0	0	0	0	0	0	0	0	0	0	0
4.258	-1.000734	19.529312	-1.934503	0	0	0	0	0	0	0	0	0	0	0	0	0	0	0
4.259	-1.177444	22.196209	-2.547789	0	0	0	0	0	0	0	0	0	0	0	0	0	0	0
4.26	-1.357756	25.303131	-3.202805	0	0	0	0	0	0	0	0	0	0	0	0	0	0	0
4.261	-1.534857	28.911736	-3.896321	0	0	0	0	0	0	0	0	0	0	0	0	0	0	0
4.262	-1.70151	33.089821	-4.625748	1.124702	0	-0.321203	0	0	0	0	0	0	-0	5.275652	-0	0	0	0
4.263	-1.850149	37.911423	-5.389197	1.139725	0	-0.323027	0	0	0	0	0	0	-0	4.94146	-0	0	0	0
4.264	-1.972984	43.456791	-6.185469	1.167693	0	-0.326688	0	0	0	0	0	0	-0	4.580068	-0	0	0	0
4.265	-2.062126	49.812187	-7.01396	1.236422	0	-0.336095	0	0	0	0	0	0	-0	4.197769	-0	0	0	0
4.266	-2.10973	57.069508	-7.874497	1.657841	0	-0.395093	0	0	0	0	0	0	-0	3.801114	-0	0	0	0
4.267	-2.108173	65.325676	-8.767072000000001	0.692819	0	-0.259219	0	0	0	0	0	0	-0	3.396791	-0	0	0	0
4.268	-2.050252	74.681793	-9.691492999999999	0.927512	0	-0.291995	0	0	0	0	0	0	-0	2.991517	-0	0	0	0
4.269	-1.92942	85.242043	-10.646953	0.982085	0	-0.299465	0	0	0	0	0	0	-0	2.591928	-0	0	0	0
4.27	-1.74006	97.112228	-11.63152	1.006308	0	-0.30268	0	0	0	0	0	0	-0	2.204479	-0	0	0	0
4.271	-1.477795	110.398102	-12.641565	1.019952	0	-0.304417	0	0	0	0	0	0	-0	1.835348	-0	0	0	0
4.272	-1.139842	125.2033	-13.671145	1.028683	0	-0.305474	0	0	0	0	0	0	-0	1.490348	-0	0	0	0
4.273	-0.725391	141.627029	-14.711361	1.03474	0	-0.306163	0	0	0	0	0	0	-0	1.174853	-0	0	0	0
4.274	-0.236018	159.761383	-15.749732	1.039181	0	-0.306634	0	0	0	0	0	0	-0	0.893728	-0	0	0	0
4.275	0.323897	179.688507	-16.769602	1.042573	0	-0.306966	0	0	0	0	0	0	-0	0.651271	-0	0	0	0
4.276	0.946753	201.477524	-17.74962	1.045248	0	-0.307203	0	0	0	0	0	0	-0	0.451166	-0	0	0	0
4.277	1.62134	225.181213	-18.663355	1.04741	0	-0.307377	0	0	0	0	0	0	-0	0.296446	-0	0	0	0
4.278	2.332514	250.83287	-19.479029	1.049195	0	-0.307504	0	0	0	0	0	0	-0	0.189464	-0	0	0	0
4.279	3.060938	278.443024	-20.159479	1.050694	0	-0.307597	0	0	0	0	0	0	-0	0.131877	-0	0	0	0
4.28	3.782953	307.996399	-20.662327	1.051971	0	-0.307665	0	0	0	0	0	0	-0	0.12464	-0	0	0	0
4.281	4.470557	339.44931	-20.940411	1.053073	0	-0.307716	0	0	0	0	0	0	-0	0.168008	-0	0	0	0
4.282	5.091556	372.727325	-20.942505	1.054035	0	-0.307752	0	0	0	0	0	0	-0	0.261544	-0	0	0	0
4.283	5.609862	407.723694	-20.614326	1.054883	0	-0.307778	0	0	0	0	0	0	-0	0.404146	-0	0	0	0
4.284	5.985955	444.298401	-19.899847	1.055637	0	-0.307797	0	0	0	0	0	0	-0	0.594067	-0	0	0	0
4.285	6.177498	482.278076	-18.742884	1.056314	0	-0.307811	0	0	0	0	0	0	-0	0.828958	-0	0	0	0
4.286	6.140096	521.457031	-17.088945	1.056924	0	-0.307821	0	0	0	0	0	0	-0	1.105901	-0	0	0	0
4.287	5.828155	561.598755	-14.887295	1.057479	0	-0.307829	0	0	0	0	0	0	-0	1.421463	-0	0	0	0
4.288	5.19584	602.439148	-12.093148	1.057986	0	-0.307835	0	0	0	0	0	0	-0	1.771746	-0	0	0	0
4.289	4.198087	643.690002	-8.669961000000001	1.058452	0	-0.307842	0	0	0	0	0	0	-0	2.152441	-0	0	0	0
4.29	2.791627	685.043945	-4.591679	1.058883	0	-0.307849	0	0	0	0	0	0	-0	2.558893	-0	0	0	0
4.291	0.93603	726.179443	0.155116	1.059282	0	-0.307857	0	0	0	0	0	0	-0	2.986159	-0	0	0	0
4.292	-1.405293	766.767334	5.569294	1.059654	0	-0.307868	0	0	0	0	0	0	-0	3.429075	-0	0	0	0
4.293	-4.264128	806.476685	11.633594	1.060001	0	-0.30788	0	0	0	0	0	0	-0	3.882322	-0	0	0	0
4.294	-7.666564	844.981812	18.313461	1.060326	0	-0.307896	0	0	0	0	0	0	-0	4.34049	-0	0	0	0
4.295	-11.63218	881.968506	25.556406	1.060629	0	-0.307914	0	0	0	0	0	0	-0	4.798147	-0	0	0	0
4.296	-16.173325	917.140564	33.291931	1.060914	0	-0.307936	0	0	0	0	0	0	-0	5.2499	-0	0	0	0
4.297	-21.294523	950.225769	41.432091	1.06118	0	-0.307962	0	0	0	0	0	0	-0	5.690459	-0	0	0	0
4.298	-26.992008	980.9810179999999	49.872665	1.061428	0	-0.307992	0	0	0	0	0	0	-0	6.114703	-0	0	0	0
4.299	-33.253422	1009.197266	58.494957	1.061658	0	-0.308026	0	0	0	0	0	0	-0	6.517728	-0	0	0	0
4.3	-40.05769	1034.703125	67.168182	1.061869	0	-0.308064	0	0	0	0	0	0	-0	6.894912	-0	0	0	0
4.301	-47.375099	1057.368042	75.752296	1.062061	0	-0.308106	0	0	0	0	0	0	-0	7.241955	-0	0	0	0
4.302	-55.167599	1077.10437	84.101311	1.062233	0	-0.308153	0	0	0	0	0	0	-0	7.554934	-0	0	0	0
4.303	-63.389355	1093.868286	92.066811	1.062382	0	-0.308205	0	0	0	0	0	0	-0	7.830336	-0	0	0	0
4.304	-71.987511	1107.660522	99.501671	1.062506	0	-0.30826	0	0	0	0	0	0	-0	8.065099	-0	0	0	0
4.305	-80.903229	1118.525146	106.263817	1.062603	0	-0.30832	0	0	0	0	0	0	-0	8.256639	-0	0	0	0
4.306	-90.07287599999999	1126.54834	112.219864	1.062668	0	-0.308383	0	0	0	0	0	0	-0	8.402875999999999	-0	0	0	0
4.307	-99.42944300000001	1131.856201	117.248558	1.062699	0	-0.30845	0	0	0	0	0	0	-0	8.502246	-0	0	0	0
4.308	-108.904083	1134.611084	121.243896	1.062691	0	-0.30852	0	0	0	0	0	0	-0	8.553718999999999	-0	0	0	0
4.309	-118.427658	1135.008057	124.117813	1.062639	0	-0.308592	0	0	0	0	0	0	-0	8.556801999999999	-0	0	0	0
4.31	-127.932358	1133.270996	125.802444	1.062538	0	-0.308666	0	0	0	0	0	0	-0	8.511536	-0	0	0	0
4.311	-137.353165	1129.646973	126.251793	1.062381	0	-0.308741	0	0	0	0	0	0	-0	8.418488999999999	-0	0	0	0
4.312	-146.629272	1124.401123	125.442909	1.062161	0	-0.308816	0	0	0	0	0	0	-0	8.278746	-0	0	0	0
4.313	-155.705139	1117.812134	123.37645	1.061873	0	-0.30889	0	0	0	0	0	0	-0	8.09388	-0	0	0	0
4.314	-164.531433	1110.165649	120.07666	1.061508	0	-0.308961	0	0	0	0	0	0	-0	7.865937	-0	0	0	0
4.315	-173.065567	1101.749512	115.590889	1.061057	0	-0.309029	0	0	0	0	0	0	-0	7.597402	-0	0	0	0
4.316	-181.271988	1092.848877	109.988487	1.060513	0	-0.309092	0	0	0	0	0	0	-0	7.291159	-0	0	0	0
4.317	-189.122009	1083.740845	103.359322	1.059867	0	-0.309149	0	0	0	0	0	0	-0	6.950456	-0	0	0	0
4.318	-196.593552	1074.690552	95.811768	1.05911	0	-0.309197	0	0	0	0	0	0	-0	6.57886	-0	0	0	0
4.319	-203.670425	1065.947266	87.470398	1.058233	0	-0.309236	0	0	0	0	0	0	-0	6.18021	-0	0	0	0
4.32	-210.341537	1057.741455	78.473297	1.057228	0	-0.309263	0	0	0	0	0	0	-0	5.758566	-0	0	0	0
4.321	-216.59993	1050.282227	68.969139	1.056086	0	-0.309277	0	0	0	0	0	0	-0	5.31816	-0	0	0	0
